<?xml version="1.0" encoding="utf-8"?>
<!-- Generator: Adobe Illustrator 23.0.1, SVG Export Plug-In . SVG Version: 6.00 Build 0)  -->
<svg version="1.1" id="Laag_1" xmlns="http://www.w3.org/2000/svg" xmlns:xlink="http://www.w3.org/1999/xlink" x="0px" y="0px"
	 viewBox="0 0 841.89 595.28" style="enable-background:new 0 0 841.89 595.28;" xml:space="preserve">
<style type="text/css">
	.st0{fill:#1D1D1B;}
</style>
<g>
	<g>
		<path class="st0" d="M415.33,16.28c0,121.2,0,242.4,0,363.6c0,34.2,0,68.4,0,102.6c0,8.04,12.5,8.06,12.5,0
			c0-121.2,0-242.4,0-363.6c0-34.2,0-68.4,0-102.6C427.83,8.23,415.33,8.22,415.33,16.28L415.33,16.28z"/>
	</g>
</g>
<g>
	<g>
		<path class="st0" d="M324.23,494.44c30.66,31.13,61.31,62.26,91.97,93.39c5.65,5.74,14.49-3.1,8.84-8.84
			c-30.66-31.13-61.31-62.26-91.97-93.39C327.42,479.86,318.58,488.7,324.23,494.44L324.23,494.44z"/>
	</g>
</g>
<g>
	<g>
		<path class="st0" d="M511.58,487.25c-30.66,31.13-61.31,62.26-91.97,93.39c-5.65,5.74,3.18,14.58,8.84,8.84
			c30.66-31.13,61.31-62.26,91.97-93.39C526.07,490.35,517.24,481.51,511.58,487.25L511.58,487.25z"/>
	</g>
</g>
</svg>
