<?xml version="1.0" encoding="utf-8"?>
<!-- Generator: Adobe Illustrator 23.0.1, SVG Export Plug-In . SVG Version: 6.00 Build 0)  -->
<svg version="1.1" id="Laag_1" xmlns="http://www.w3.org/2000/svg" xmlns:xlink="http://www.w3.org/1999/xlink" x="0px" y="0px"
	 viewBox="0 0 841.89 595.28" style="enable-background:new 0 0 841.89 595.28;" xml:space="preserve">
<style type="text/css">
	.st0{fill-rule:evenodd;clip-rule:evenodd;fill:#020203;}
</style>
<path class="st0" d="M186.39,195.65c-41.01,48.16-80.33,107.88-80.72,152.52c-0.15,16.8,5.21,31.46,18.07,42.57
	c18.51,16,38.91,21.64,59.2,21.67c29.66,0.04,59.11-11.92,82.17-21.15c38.83-15.53,468.12-201.95,468.12-201.95
	c4.14-2.08,3.37-4.66-1.82-3.37c-2.09,0.52-467.34,126.61-467.34,126.61c-8.81,2.49-17.92,3.8-27.08,3.88
	c-35.76,0.21-67.57-19.64-67.31-61.46C169.77,238.6,174.78,218.87,186.39,195.65L186.39,195.65z"/>
</svg>
