<?xml version="1.0" encoding="utf-8"?>
<!-- Generator: Adobe Illustrator 23.0.1, SVG Export Plug-In . SVG Version: 6.00 Build 0)  -->
<svg version="1.1" id="Laag_1" xmlns="http://www.w3.org/2000/svg" xmlns:xlink="http://www.w3.org/1999/xlink" x="0px" y="0px"
	 viewBox="0 0 841.89 595.28" style="enable-background:new 0 0 841.89 595.28;" xml:space="preserve">
<style type="text/css">
	.st0{fill-rule:evenodd;clip-rule:evenodd;fill:#FFFFFF;}
	.st1{fill:#FFFFFF;}
	.st2{font-family:'HelveticaNeue-Bold';}
	.st3{font-size:246.8502px;}
</style>
<g id="Group_4" transform="translate(-910 -21.5)">
	<g id="nikeLogo" transform="translate(903.923 -47.553)">
		<path id="Path_2" class="st0" d="M225.75,80.12c-35.09,41.17-68.68,92.22-69.03,130.39c-0.71,13.84,5.03,27.24,15.43,36.41
			c14.02,12.25,32,18.87,50.6,18.51c25.39,0,50.52-10.23,70.26-18.07c33.24-13.31,400.25-172.71,400.25-172.71
			c3.53-1.76,2.91-3.97-1.59-2.91C689.92,72.18,292.05,180,292.05,180c-7.49,2.12-15.34,3.26-23.19,3.35
			c-30.59,0.18-57.75-16.75-57.57-52.54C212.26,113.09,217.2,95.72,225.75,80.12z"/>
	</g>
	<text transform="matrix(1 0 0 1 908.877 486.8369)" class="st1 st2 st3">S</text>
	<text transform="matrix(1 0 0 1 1067.5664 486.8369)" class="st1 st2 st3">N</text>
	<text transform="matrix(1 0 0 1 1243.8882 486.8369)" class="st1 st2 st3">K</text>
	<text transform="matrix(1 0 0 1 1420.21 486.8369)" class="st1 st2 st3">R</text>
	<text transform="matrix(1 0 0 1 1587.7139 486.8369)" class="st1 st2 st3">S</text>
</g>
</svg>
