<?xml version="1.0" encoding="utf-8"?>
<!-- Generator: Adobe Illustrator 23.0.1, SVG Export Plug-In . SVG Version: 6.00 Build 0)  -->
<svg version="1.1" id="Layer_1" xmlns="http://www.w3.org/2000/svg" xmlns:xlink="http://www.w3.org/1999/xlink" x="0px" y="0px"
	 viewBox="0 0 2500 2500" style="enable-background:new 0 0 2500 2500;" xml:space="preserve">
<title>Snkrs</title>
<g id="Page-1">
	<g id="Snkrs">
		<g id="snkrs-logo-mobile">
			<path id="Combined-Shape" d="M1670.9,1585c45.9,0,70.3-40,70.3-81.1c0-55.7-34.2-79.1-81.1-77.1V1584L1670.9,1585L1670.9,1585z
				 M608.4,1770.5c-18.6,94.7-94.7,161.1-198.2,161.1c-43.9,0-88.9-3.9-129.9-20.5v-199.2c23.4,35.2,65.4,70.3,109.4,70.3
				c23.4,0,50.8-14.6,50.8-42c0-14.6-4.9-26.4-13.7-35.2c-7.8-9.8-17.6-17.6-28.3-24.4c-34.2-26.4-63.5-50.8-85.9-81.1
				c-20.5-29.3-34.2-64.5-34.2-111.3c0-74.2,46.9-203.1,194.3-203.1c38.1,0,78.1,10.7,113.3,27.3v178.7
				c-22.5-28.3-57.6-54.7-91.8-54.7c-19.5,0-44.9,13.7-44.9,39.1c0,13.7,7.8,25.4,16.6,35.2c8.8,9.8,22.5,18.6,31.2,26.4
				c36.1,25.4,65.4,48.8,85,78.1c12.7,17.6,21.5,36.1,26.4,59.6V1291h180.7l82,285.2V1291h166v635.7H895.5l-120.1-311.5v311.5h-167
				V1770.5L608.4,1770.5z M1488.3,1290h167c122.1,0,216.8,29.3,248,131.8c20.5-66.4,75.2-137.7,184.6-137.7c41,0,85.9,6.8,123,26.4
				v193.4c-20.5-32.2-61.5-68.4-101.6-68.4c-20.5,0-44.9,14.6-44.9,39.1c0,13.7,7.8,25.4,16.6,35.2c8.8,9.8,22.5,18.6,31.2,26.4
				c36.1,25.4,65.4,48.8,85,78.1c20.5,28.3,31.2,62.5,31.2,110.4c0,118.2-83,207-203.1,207c-27.3,0-55.7-1-82-6.8l1,2h-187.5
				l-97.7-262.7c1,31.2,2.9,62.5,2.9,93.8v168.9h-323.2l-104.5-272.5v272.5h-171.9V1291h171.9v183.6l86.9-184.6H1488.3L1488.3,1290z
				 M1488.3,1322.3l-119.1,246.1l119.1,285.2V1322.3L1488.3,1322.3z M1905.3,1560.5c-12.7,44.9-43,82-90.8,101.6l80.1,164.1v-114.3
				c23.4,35.2,65.4,70.3,109.4,70.3c23.4,0,50.8-14.6,50.8-42c0-14.6-4.9-26.4-13.7-35.2c-7.8-8.8-17.6-16.6-28.3-24.4
				c-34.2-26.4-63.5-50.8-85.9-81.1C1918,1586.9,1910.2,1574.2,1905.3,1560.5L1905.3,1560.5z"/>
			<path id="Shape" d="M987.3,824.2c-80.1,20.5-143.6,18.6-180.7-7.8c-93.8-68.4-22.5-206.1,2.9-247.1
				c-45.9,49.8-91.8,100.6-127,155.3c-55.7,85.9-80.1,179.7-42,239.3c67.4,108.4,230.5,58.6,335,14.6l963.9-405.3L987.3,824.2
				L987.3,824.2z"/>
		</g>
	</g>
</g>
</svg>
